<?xml version="1.0" encoding="UTF-8"?>
<svg version="1.1" xmlns="http://www.w3.org/2000/svg" width="256" height="256">
<path d="M0 0 C23.18412919 20.61867227 40.35445453 51.06368726 42.796875 82.35546875 C44.02623367 105.86986847 42.35194487 127.61247395 32.796875 149.35546875 C32.37196777 150.33676758 32.37196777 150.33676758 31.93847656 151.33789062 C27.02019636 162.47874634 20.44283208 171.91666656 12.796875 181.35546875 C12.12269531 182.19207031 11.44851562 183.02867187 10.75390625 183.890625 C3.09942811 192.98141254 -6.45479201 199.70216634 -16.203125 206.35546875 C-17.03714844 206.92523438 -17.87117187 207.495 -18.73046875 208.08203125 C-38.36617352 220.63545618 -62.18960263 225.76328 -85.203125 225.73046875 C-85.88121216 225.72959259 -86.55929932 225.72871643 -87.25793457 225.72781372 C-117.29782997 225.60037655 -146.68534313 215.67551511 -169.203125 195.35546875 C-170.03972656 194.6490625 -170.87632812 193.94265625 -171.73828125 193.21484375 C-191.21619789 176.47647953 -203.30091568 153.77910157 -210.203125 129.35546875 C-210.54472656 128.16566406 -210.88632813 126.97585937 -211.23828125 125.75 C-217.375649 99.57341289 -214.01894445 69.79241996 -203.203125 45.35546875 C-202.69007813 44.18886719 -202.17703125 43.02226563 -201.6484375 41.8203125 C-186.98402022 10.7022787 -160.79121737 -12.56936934 -128.4909668 -24.17797852 C-124.75996904 -25.44845273 -120.99543481 -26.57281042 -117.203125 -27.64453125 C-116.01332031 -27.98613281 -114.82351562 -28.32773437 -113.59765625 -28.6796875 C-73.93897622 -37.97806941 -30.78426283 -25.96087738 0 0 Z " fill="#343A46" transform="translate(213.203125,30.64453125)"/>
<path d="M0 0 C23.18412919 20.61867227 40.35445453 51.06368726 42.796875 82.35546875 C44.02623367 105.86986847 42.35194487 127.61247395 32.796875 149.35546875 C32.37196777 150.33676758 32.37196777 150.33676758 31.93847656 151.33789062 C27.02019636 162.47874634 20.44283208 171.91666656 12.796875 181.35546875 C12.12269531 182.19207031 11.44851562 183.02867187 10.75390625 183.890625 C3.09942811 192.98141254 -6.45479201 199.70216634 -16.203125 206.35546875 C-17.03714844 206.92523438 -17.87117187 207.495 -18.73046875 208.08203125 C-38.36617352 220.63545618 -62.18960263 225.76328 -85.203125 225.73046875 C-85.88121216 225.72959259 -86.55929932 225.72871643 -87.25793457 225.72781372 C-117.29782997 225.60037655 -146.68534313 215.67551511 -169.203125 195.35546875 C-170.03972656 194.6490625 -170.87632812 193.94265625 -171.73828125 193.21484375 C-191.21619789 176.47647953 -203.30091568 153.77910157 -210.203125 129.35546875 C-210.54472656 128.16566406 -210.88632813 126.97585937 -211.23828125 125.75 C-217.375649 99.57341289 -214.01894445 69.79241996 -203.203125 45.35546875 C-202.69007813 44.18886719 -202.17703125 43.02226563 -201.6484375 41.8203125 C-186.98402022 10.7022787 -160.79121737 -12.56936934 -128.4909668 -24.17797852 C-124.75996904 -25.44845273 -120.99543481 -26.57281042 -117.203125 -27.64453125 C-116.01332031 -27.98613281 -114.82351562 -28.32773437 -113.59765625 -28.6796875 C-73.93897622 -37.97806941 -30.78426283 -25.96087738 0 0 Z M-120.578125 13.85546875 C-121.03960937 14.42265625 -121.50109375 14.98984375 -121.9765625 15.57421875 C-124.3138992 18.96856759 -125.45782991 21.52612484 -125.3984375 25.68359375 C-125.38876953 26.88242187 -125.38876953 26.88242187 -125.37890625 28.10546875 C-125.36214844 28.93046875 -125.34539062 29.75546875 -125.328125 30.60546875 C-125.31910156 31.4459375 -125.31007812 32.28640625 -125.30078125 33.15234375 C-125.27728317 35.22017479 -125.24141408 37.2878587 -125.203125 39.35546875 C-126.74637451 39.33190308 -126.74637451 39.33190308 -128.32080078 39.30786133 C-132.15616963 39.25335541 -135.99150457 39.21904398 -139.82714844 39.19067383 C-141.48378263 39.1756341 -143.14037731 39.15519698 -144.796875 39.12915039 C-147.1849953 39.0925536 -149.57258688 39.07569436 -151.9609375 39.0625 C-152.69555206 39.04701614 -153.43016663 39.03153229 -154.18704224 39.01557922 C-159.94542751 39.01371594 -163.95315431 40.34165911 -168.25 44.1875 C-168.81203125 44.84105469 -169.3740625 45.49460938 -169.953125 46.16796875 C-170.81164062 47.13669922 -170.81164062 47.13669922 -171.6875 48.125 C-175.65429418 53.96273061 -175.50488002 60.0002674 -175.50952148 66.79199219 C-175.517845 67.83019104 -175.52616852 68.86838989 -175.53474426 69.93804932 C-175.55880123 73.36368585 -175.56761157 76.78913175 -175.57421875 80.21484375 C-175.58318888 82.6036993 -175.5923108 84.99255428 -175.60157776 87.38140869 C-175.61805901 92.38807539 -175.62576622 97.3946753 -175.62866211 102.40136719 C-175.63404251 108.80140618 -175.6717132 115.20081302 -175.71740627 121.60067368 C-175.74722169 126.53536239 -175.75438667 131.46989977 -175.75538826 136.40467072 C-175.75958219 138.7632766 -175.77198303 141.12188328 -175.79290581 143.48040009 C-175.81990956 146.78785517 -175.81496678 150.09385635 -175.80249023 153.40136719 C-175.81732452 154.36586792 -175.83215881 155.33036865 -175.84744263 156.32409668 C-175.77380609 163.21592947 -174.12857599 168.63481947 -170.203125 174.35546875 C-163.80878456 180.36033177 -158.79993383 181.50215137 -150.11694336 181.48144531 C-149.18647186 181.48331345 -148.25600037 181.48518158 -147.29733276 181.48710632 C-145.27408564 181.49111263 -143.25083399 181.49318537 -141.22758293 181.49356842 C-136.91894268 181.49698508 -132.61045316 181.51835355 -128.30186558 181.53879929 C-120.27975605 181.57679398 -112.25780547 181.60808909 -104.2355957 181.60595703 C-98.65574502 181.60516774 -93.07644367 181.62863039 -87.49673653 181.66783905 C-85.3754276 181.6782707 -83.25405505 181.67984409 -81.1327343 181.67218781 C-61.00724024 181.60682521 -61.00724024 181.60682521 -54.00465393 186.18768311 C-48.63371754 189.6692272 -41.30035757 188.85144754 -35.203125 188.35546875 C-30.04953127 187.17606715 -24.89454199 185.7692481 -20.1953125 183.30078125 C-17.65026372 182.09313065 -15.15001015 181.65805422 -12.390625 181.10546875 C-6.60491018 179.6819433 -2.99075412 177.96077969 0.796875 173.35546875 C4.7152357 166.83479919 5.38002851 160.85923544 5.33032227 153.37890625 C5.33893784 152.31915588 5.34755341 151.25940552 5.35643005 150.1675415 C5.37900641 146.68826397 5.37236658 143.20979726 5.36328125 139.73046875 C5.36852013 137.29866295 5.37479758 134.86685918 5.38206482 132.43505859 C5.39245343 127.34788423 5.38792882 122.26098987 5.37329102 117.17382812 C5.3560977 110.66722466 5.37961467 104.16150382 5.41478062 97.65499878 C5.43677937 92.63625276 5.43530715 87.61771718 5.4270153 82.59893799 C5.42619732 80.20044994 5.43303139 77.80194622 5.44778633 75.40350342 C5.46527896 72.04579961 5.4506489 68.68967273 5.42797852 65.33203125 C5.43967072 64.3499469 5.45136292 63.36786255 5.46340942 62.35601807 C5.37251091 55.71192633 3.95405538 50.64451252 -0.203125 45.35546875 C-6.20413371 40.57103566 -11.31490636 39.20381512 -18.93359375 39.2578125 C-20.05922478 39.25993492 -20.05922478 39.25993492 -21.20759583 39.26210022 C-23.6019796 39.26769315 -25.99626953 39.28024431 -28.390625 39.29296875 C-30.01497261 39.29798467 -31.63932168 39.30254741 -33.26367188 39.30664062 C-37.24352569 39.31766027 -41.22330944 39.33492002 -45.203125 39.35546875 C-45.14511719 38.14890625 -45.08710938 36.94234375 -45.02734375 35.69921875 C-44.2838351 24.60064101 -44.2838351 24.60064101 -48.71875 14.828125 C-49.20859375 14.34214844 -49.6984375 13.85617188 -50.203125 13.35546875 C-50.67234375 12.85917969 -51.1415625 12.36289062 -51.625 11.8515625 C-57.92136474 5.91063771 -65.53307164 6.03869105 -73.66796875 6.01953125 C-74.6601088 6.01287445 -75.65224884 6.00621765 -76.67445374 5.99935913 C-78.76463985 5.98927179 -80.85485792 5.98454089 -82.94506836 5.98486328 C-86.12733347 5.98048703 -89.30821387 5.94411656 -92.49023438 5.90625 C-94.52864113 5.90038149 -96.56705442 5.89641233 -98.60546875 5.89453125 C-99.54841293 5.88016022 -100.49135712 5.86578918 -101.46287537 5.85098267 C-109.00490806 5.90267606 -115.72602814 7.68517217 -120.578125 13.85546875 Z " fill="#9168CD" transform="translate(213.203125,30.64453125)"/>
<path d="M0 0 C1.22818451 -0.0112793 2.45636902 -0.02255859 3.72177124 -0.03417969 C5.07989738 -0.02640274 6.43802119 -0.01821008 7.79614258 -0.00964355 C9.22865511 -0.01506461 10.66116206 -0.02218719 12.09365845 -0.03088379 C15.98213489 -0.04912236 19.87018692 -0.04204767 23.75867081 -0.02936745 C27.82740678 -0.01924243 31.89610635 -0.02863173 35.96484375 -0.03491211 C42.79767381 -0.04218999 49.63033095 -0.0325972 56.46313477 -0.0135498 C64.36354143 0.00821932 72.26353519 0.00116804 80.16393185 -0.02085543 C86.94622044 -0.0390055 93.72838471 -0.04156971 100.51068974 -0.03110075 C104.56183198 -0.02486361 108.61278013 -0.0240361 112.66390991 -0.0372467 C116.47257191 -0.04879901 120.28070143 -0.04079149 124.08930588 -0.01766968 C125.48731985 -0.01237917 126.88537861 -0.0139023 128.28337479 -0.02272034 C130.19101617 -0.03364394 132.09875544 -0.01751878 134.00634766 0 C135.07411942 0.0015081 136.14189117 0.0030162 137.24201965 0.00457001 C140.68972139 0.63309372 141.87087983 1.77932406 144.00317383 4.50793457 C144.83689202 8.28115784 144.65204574 12.09012001 144.62817383 15.94543457 C144.66040039 16.98248535 144.69262695 18.01953613 144.72583008 19.0880127 C144.72711914 20.09154785 144.7284082 21.09508301 144.72973633 22.12902832 C144.73569824 23.04095947 144.74166016 23.95289062 144.74780273 24.89245605 C143.63966959 28.78472831 141.35814661 30.5199851 138.00317383 32.50793457 C134.1074441 34.28878287 130.11442985 35.72622347 126.07739258 37.15246582 C124.9340596 37.56711594 123.79072662 37.98176605 122.61274719 38.40898132 C118.97615028 39.72449356 115.33355698 41.02244551 111.69067383 42.32043457 C109.22087332 43.21190677 106.75146741 44.10447298 104.2824707 44.99816895 C99.78892145 46.61962918 95.29461978 48.23881197 90.79492188 49.84313965 C89.8914653 50.16559158 88.98800873 50.48804352 88.05717468 50.82026672 C86.00317383 51.50793457 86.00317383 51.50793457 85.00317383 51.50793457 C84.97739258 50.61590332 84.95161133 49.72387207 84.92504883 48.80480957 C84.86833008 47.63434082 84.81161133 46.46387207 84.75317383 45.25793457 C84.70676758 44.09777832 84.66036133 42.93762207 84.61254883 41.74230957 C83.88675039 37.8899948 83.04979266 36.89906488 80.00317383 34.50793457 C77.17890225 33.89590085 77.17890225 33.89590085 74.06567383 33.97668457 C72.35250977 33.9689502 72.35250977 33.9689502 70.60473633 33.96105957 C69.4162207 33.97652832 68.22770508 33.99199707 67.00317383 34.00793457 C65.8146582 33.99246582 64.62614258 33.97699707 63.40161133 33.96105957 C62.25950195 33.96621582 61.11739258 33.97137207 59.94067383 33.97668457 C58.89782227 33.98119629 57.8549707 33.98570801 56.78051758 33.99035645 C53.2172524 34.65439672 52.07901442 35.54901494 50.00317383 38.50793457 C49.30715103 41.77046877 49.30715103 41.77046877 49.25317383 45.25793457 C49.1680957 47.0136377 49.1680957 47.0136377 49.08129883 48.80480957 C49.04262695 50.14285645 49.04262695 50.14285645 49.00317383 51.50793457 C41.34785103 48.888509 33.69831888 46.25326841 26.05532837 43.59811401 C21.60787227 42.05568553 17.15001198 40.54719822 12.68676758 39.05090332 C10.45865283 38.28730999 8.23077603 37.52302185 6.00317383 36.75793457 C4.96684814 36.41834717 3.93052246 36.07875977 2.86279297 35.72888184 C-3.07763314 33.6597335 -6.94898291 32.16545335 -9.99682617 26.50793457 C-10.65167762 22.77181924 -10.65131151 19.16676388 -10.55932617 15.38293457 C-10.5702832 14.39422363 -10.58124023 13.4055127 -10.5925293 12.38684082 C-10.51933588 5.17484903 -10.51933588 5.17484903 -8.33828735 2.39102936 C-5.36090554 -0.00349771 -3.79113407 0.00535453 0 0 Z " fill="#9168CD" transform="translate(60.996826171875,82.4920654296875)"/>
<path d="M0 0 C6.79977707 2.24339687 13.55933002 4.58584113 20.30859375 6.9765625 C21.35652603 7.34727875 22.40445831 7.717995 23.48414612 8.09994507 C25.68188232 8.87772936 27.87946621 9.65594416 30.0769043 10.43457031 C33.45110841 11.62982053 36.82611455 12.82278646 40.20117188 14.015625 C42.3411947 14.77329949 44.48117036 15.53110721 46.62109375 16.2890625 C47.6324791 16.6463443 48.64386444 17.0036261 49.68589783 17.37173462 C50.61769363 17.7023288 51.54948944 18.03292297 52.50952148 18.37353516 C53.33064926 18.6642691 54.15177704 18.95500305 54.99778748 19.25454712 C59.33960218 20.87106796 60.00872433 22.84429426 62 27 C63.74506615 28.74506615 66.19039143 28.23282784 68.56640625 28.31640625 C69.69111328 28.35830078 70.81582031 28.40019531 71.97460938 28.44335938 C73.15861328 28.48267578 74.34261719 28.52199219 75.5625 28.5625 C76.75037109 28.60568359 77.93824219 28.64886719 79.16210938 28.69335938 C82.10794784 28.79983546 85.0538743 28.90184841 88 29 C87.00811759 31.4955367 86.00945025 33.97847827 84.9296875 36.4375 C80.30795066 47.66660877 81.345367 57.65738256 85 69 C85.33949644 70.33177741 85.67382893 71.66489651 86 73 C75.52543686 73.13904915 65.05109343 73.24564586 54.57579517 73.31087303 C49.71157535 73.34217994 44.84798715 73.38464074 39.98413086 73.45263672 C35.28973375 73.51785262 30.59594393 73.55371087 25.90112877 73.56926346 C24.11049526 73.58034587 22.31989483 73.60198801 20.52952003 73.63438034 C18.02000888 73.67797591 15.51300302 73.68393319 13.00317383 73.68115234 C12.26374039 73.702724 11.52430695 73.72429565 10.76246643 73.746521 C6.68738395 73.69769727 5.12503133 73.11030783 2.03527832 70.38439941 C-0.25750781 66.57179848 -0.60922644 64.57800313 -0.56762695 60.16845703 C-0.56835709 59.51409164 -0.56908722 58.85972626 -0.56983948 58.18553162 C-0.56638102 56.04208824 -0.52761116 53.90087177 -0.48828125 51.7578125 C-0.47894672 50.26424344 -0.47183363 48.77065898 -0.46684265 47.27706909 C-0.44782267 43.36072951 -0.39876712 39.44532859 -0.34332275 35.52935791 C-0.29202096 31.52751359 -0.26930544 27.52551643 -0.24414062 23.5234375 C-0.19064167 15.68186264 -0.10539172 7.84104834 0 0 Z " fill="#9168CD" transform="translate(51,126)"/>
<path d="M0 0 C6.13573098 4.60435054 10.8357742 10.58977064 13 18 C14.36910116 29.23147593 12.57043067 38.0218123 6.25 47.3125 C1.54661365 53.17692379 -4.61015886 56.68889915 -12 58 C-23.20390599 59.16095405 -31.06477352 57.12492839 -40.125 50.4296875 C-46.11160821 45.08818793 -49.39220171 38.26840164 -50.515625 30.37890625 C-50.97535907 20.1707202 -48.69440497 12.35373151 -41.9140625 4.62109375 C-29.85265288 -6.86898594 -14.52900866 -8.66679617 0 0 Z " fill="#4CC692" transform="translate(191,152)"/>
<path d="M0 0 C0.79623779 -0.00397797 1.59247559 -0.00795593 2.4128418 -0.01205444 C3.3205835 -0.02781525 4.2283252 -0.04357605 5.16357422 -0.05981445 C6.62307495 -0.04463272 6.62307495 -0.04463272 8.11206055 -0.02914429 C9.62086792 -0.03631973 9.62086792 -0.03631973 11.16015625 -0.04364014 C13.28509079 -0.04703993 15.41007758 -0.037832 17.53491211 -0.01693726 C20.78837658 0.00982621 24.03839095 -0.01668337 27.29174805 -0.04867554 C29.35685983 -0.04537145 31.42196947 -0.03896525 33.48706055 -0.02914429 C34.46006104 -0.03926544 35.43306152 -0.0493866 36.43554688 -0.05981445 C37.79715942 -0.03617325 37.79715942 -0.03617325 39.1862793 -0.01205444 C39.98251709 -0.00807648 40.77875488 -0.00409851 41.59912109 0 C43.79956055 0.63491821 43.79956055 0.63491821 47.79956055 5.63491821 C47.79956055 10.25491821 47.79956055 14.87491821 47.79956055 19.63491821 C29.97956055 19.63491821 12.15956055 19.63491821 -6.20043945 19.63491821 C-6.20043945 1.78908442 -6.20043945 1.78908442 0 0 Z " fill="#9068CB" transform="translate(107.200439453125,50.365081787109375)"/>
<path d="M0 0 C2 0.6875 2 0.6875 4 2.6875 C3.88242524 7.55005611 1.10175674 10.20566441 -2.125 13.5 C-3.12833585 14.55659735 -4.13093943 15.61389053 -5.1328125 16.671875 C-5.62297852 17.18427734 -6.11314453 17.69667969 -6.61816406 18.22460938 C-9.01767032 20.76486406 -11.28426102 23.41795343 -13.5625 26.06640625 C-14.036875 26.60136719 -14.51125 27.13632813 -15 27.6875 C-15.45375 28.25339844 -15.9075 28.81929687 -16.375 29.40234375 C-18 30.6875 -18 30.6875 -20.26171875 31.2578125 C-24.54416771 30.36589018 -26.82500588 27.62659653 -29.8125 24.5625 C-30.40998047 23.99273437 -31.00746094 23.42296875 -31.62304688 22.8359375 C-34.47521412 19.96747216 -35.87911522 18.46817578 -36.51171875 14.3828125 C-36 11.6875 -36 11.6875 -34 9.6875 C-31.01293635 9.60215532 -29.40015291 10.3554229 -27.1171875 12.25 C-25.30953184 14.00642655 -23.57659807 15.72016004 -22 17.6875 C-22 18.3475 -22 19.0075 -22 19.6875 C-15.77735699 14.60779142 -10.65118891 9.05522645 -5.6875 2.75 C-3.77474947 0.4121938 -3.03818576 -0.47471653 0 0 Z " fill="#333C46" transform="translate(189,163.3125)"/>
<path d="M0 0 C0 9.24 0 18.48 0 28 C-2.31 26.02 -4.62 24.04 -7 22 C-14.62127005 15.93121089 -22.55881014 13.89716581 -32 12 C-28.97398032 9.98265354 -26.27385818 8.87765478 -22.87109375 7.6171875 C-21.07188477 6.95009766 -21.07188477 6.95009766 -19.23632812 6.26953125 C-18.3015564 5.92656006 -18.3015564 5.92656006 -17.34790039 5.57666016 C-15.43887827 4.87550622 -13.53281437 4.16672575 -11.62695312 3.45703125 C-2.2587008 0 -2.2587008 0 0 0 Z " fill="#8F67CA" transform="translate(205,126)"/>
<path d="M0 0 C1.32 0 2.64 0 4 0 C4 0.66 4 1.32 4 2 C2.02 2.99 2.02 2.99 0 4 C0 5.65 0 7.3 0 9 C-0.66 8.67 -1.32 8.34 -2 8 C-2.125 5.125 -2.125 5.125 -2 2 C-1.34 1.34 -0.68 0.68 0 0 Z " fill="#35464C" transform="translate(155,173)"/>
<path d="M0 0 C0 1.32 0 2.64 0 4 C-2.64 3.67 -5.28 3.34 -8 3 C-3.5 0 -3.5 0 0 0 Z " fill="#8763BF" transform="translate(181,135)"/>
</svg>
